<svg width="102" height="25" viewBox="0 0 102 25" fill="none" xmlns="http://www.w3.org/2000/svg">
<path d="M0.298875 4.36768C-0.246798 3.91249 0.66594 3.33512 1.39678 3.67319L10.5848 7.92338C11.0624 8.14438 11.7434 7.9675 11.832 7.59949L13.5597 0.420405C13.6946 -0.140135 14.9834 -0.140135 15.1182 0.420406L16.8459 7.59949C16.9343 7.9675 17.6154 8.14438 18.0931 7.92338L27.4446 3.59758C28.1712 3.26142 29.0822 3.83121 28.5477 4.28762L19.3126 12.1744C19.1092 12.3479 19.1087 12.584 19.3111 12.758L28.5909 20.7328C29.1223 21.1896 28.2119 21.7574 27.4863 21.4217L18.0931 17.0766C17.6154 16.8556 16.9343 17.0325 16.8459 17.4005L15.1182 24.5796C14.9834 25.1401 13.6946 25.1401 13.5597 24.5796L11.832 17.4005C11.7434 17.0325 11.0624 16.8556 10.5848 17.0766L1.26379 21.3883C0.536293 21.7249 -0.374987 21.1536 0.161616 20.6974L9.5764 12.6936C9.78308 12.5178 9.78134 12.2779 9.57213 12.1034L0.298875 4.36768Z" fill="#FF4C00"/>
<path d="M101.856 7.83571L101.334 10.1875C101.09 10.1527 100.828 10.1352 100.55 10.1352C98.9993 10.1352 97.8321 10.6404 97.0482 11.6508C96.2817 12.6438 95.7155 13.9678 95.3497 15.6227L94.0432 21.6067H91.7959L94.6703 8.12315H96.7608L96.1075 10.9976C97.3269 8.85482 98.9645 7.78345 101.02 7.78345C101.334 7.78345 101.612 7.80087 101.856 7.83571Z" fill="white"/>
<path d="M82.0833 8.12315L81.6391 10.2659C82.9456 8.61093 84.5657 7.78345 86.4994 7.78345C87.6666 7.78345 88.616 8.08831 89.3477 8.69803C90.0794 9.30775 90.4452 10.0917 90.4452 11.0498C90.4452 11.6421 90.3319 12.4522 90.1055 13.48L88.3808 21.6067H86.1074L87.8582 13.3755C87.9976 12.7657 88.0673 12.1473 88.0673 11.5202C88.0673 10.9627 87.8669 10.5272 87.4663 10.2136C87.083 9.88263 86.543 9.71714 85.8461 9.71714C84.5047 9.71714 83.4072 10.1788 82.5536 11.1021C81.7174 12.008 81.16 13.1577 80.8813 14.5514L79.3918 21.6067H77.1445L79.9928 8.12315H82.0833Z" fill="white"/>
<path d="M65.2933 12.1734C65.5023 10.745 66.0946 9.65617 67.0702 8.90708C68.0631 8.15799 69.4132 7.78345 71.1205 7.78345C72.6535 7.78345 73.8468 8.06218 74.7004 8.61964C75.5714 9.15968 76.0069 9.91748 76.0069 10.893C76.0069 11.2937 75.9024 11.947 75.6934 12.8529L74.4391 18.4449C74.3694 18.741 74.3346 19.0372 74.3346 19.3333C74.3346 19.8211 74.5697 20.065 75.0401 20.065C75.1969 20.065 75.4146 20.0302 75.6934 19.9605L75.4059 21.659C74.9356 21.8158 74.4739 21.8942 74.021 21.8942C73.4635 21.8942 73.028 21.7635 72.7144 21.5022C72.4009 21.2409 72.2441 20.8751 72.2441 20.4047C72.2441 20.2479 72.2528 20.0998 72.2702 19.9605C71.1727 21.3193 69.6833 21.9987 67.8018 21.9987C66.4604 21.9987 65.4152 21.6677 64.6661 21.0057C63.917 20.3437 63.5425 19.4204 63.5425 18.2358C63.5425 17.5042 63.6818 16.8683 63.9606 16.3283C64.2567 15.7882 64.5964 15.3701 64.9797 15.074C65.3629 14.7778 65.8768 14.5339 66.5214 14.3423C67.1834 14.1507 67.7496 14.02 68.2199 13.9504C68.7077 13.8807 69.3174 13.8197 70.0491 13.7674C70.171 13.75 70.3801 13.7326 70.6762 13.7152C70.9724 13.6978 71.1814 13.689 71.3034 13.689C71.4427 13.6716 71.6344 13.6455 71.8783 13.6106C72.1396 13.5758 72.3225 13.5323 72.427 13.48C72.5489 13.4277 72.697 13.3668 72.8712 13.2971C73.0629 13.21 73.2022 13.1142 73.2893 13.0096C73.3764 12.8877 73.4635 12.7483 73.5506 12.5915C73.6552 12.4348 73.7248 12.2518 73.7597 12.0428C73.7945 11.8163 73.8119 11.5724 73.8119 11.3111C73.8119 10.7711 73.5681 10.3617 73.0803 10.083C72.6099 9.78682 71.9392 9.63874 71.0682 9.63874C70.0578 9.63874 69.2564 9.83037 68.6641 10.2136C68.0718 10.5969 67.6538 11.2502 67.4099 12.1734H65.2933ZM73.1587 14.6559C72.8103 15.0566 71.7911 15.3092 70.1013 15.4137C69.6136 15.4485 69.2303 15.4834 68.9516 15.5182C68.6903 15.553 68.3244 15.6314 67.8541 15.7534C67.4012 15.8579 67.044 15.9973 66.7827 16.1715C66.5388 16.3283 66.3124 16.5722 66.1033 16.9031C65.8943 17.2341 65.7897 17.6261 65.7897 18.079C65.7897 18.7584 66.0162 19.2985 66.4691 19.6992C66.9395 20.0824 67.5754 20.274 68.3767 20.274C69.7181 20.274 70.7285 19.8734 71.4079 19.072C72.0873 18.2532 72.5925 17.1209 72.9235 15.675L73.1587 14.6559Z" fill="white"/>
<path d="M63.5512 3.00146L59.6315 21.6067H57.3843L61.3301 3.00146H63.5512Z" fill="white"/>
<path d="M45.2219 3.00146H52.0159C55.9704 3.00146 57.9477 4.61287 57.9477 7.83569C57.9477 9.59517 57.3728 11.0585 56.223 12.2257C55.0733 13.3755 53.427 13.9503 51.2843 13.9503H45.3526L43.7063 21.6067H41.25L45.2219 3.00146ZM47.234 5.06581L45.7707 11.9121H50.7617C52.2424 11.9121 53.4009 11.5898 54.2371 10.9453C55.0907 10.3007 55.5175 9.31644 55.5175 7.99247C55.5175 7.41759 55.413 6.93853 55.2039 6.55527C55.0123 6.17202 54.7858 5.88458 54.5245 5.69295C54.2806 5.50133 53.9061 5.35325 53.4009 5.24873C52.8957 5.1442 52.4863 5.09194 52.1727 5.09194C51.8766 5.07452 51.4236 5.06581 50.8139 5.06581H47.234Z" fill="white"/>
</svg>
