<svg width="1124" height="24" viewBox="0 0 1124 24" fill="none" xmlns="http://www.w3.org/2000/svg">
<g opacity="0.6">
<path d="M63.6281 3.49578C63.9866 3.87223 64.5335 4.06048 65.2684 4.06048C66.0033 4.06048 66.5412 3.87223 66.8817 3.49578C67.2226 3.10139 67.3927 2.61736 67.3927 2.04369C67.3927 1.43415 67.2226 0.94118 66.8817 0.564695C66.5412 0.188242 66.0033 0 65.2684 0C64.5335 0 63.9866 0.188242 63.6281 0.564695C63.2873 0.94118 63.1172 1.43415 63.1172 2.04369C63.1172 2.61736 63.2873 3.10139 63.6281 3.49578Z" fill="white"/>
<path d="M46.5525 5.8219L51.124 20.4235H57.1205L61.0734 5.8219H57.4703L54.4958 17.358H53.8609L50.3981 5.8219H46.5525Z" fill="white"/>
<path d="M75.897 20.8719C73.8893 20.8719 72.3115 20.4506 71.1643 19.6081C70.0351 18.7476 69.4434 17.5642 69.3895 16.0585H72.7507C72.8046 16.5605 73.0826 17.0177 73.5843 17.43C74.0863 17.8423 74.8753 18.0483 75.9508 18.0483C76.8472 18.0483 77.5551 17.8871 78.0751 17.5642C78.613 17.2416 78.8817 16.8024 78.8817 16.2466C78.8817 15.7627 78.6758 15.3772 78.2635 15.0904C77.8691 14.8036 77.1877 14.6153 76.2196 14.5257L74.9288 14.3912C73.2976 14.212 72.0427 13.7459 71.1643 12.9929C70.2859 12.24 69.8467 11.2361 69.8467 9.98119C69.8467 8.97729 70.0975 8.13472 70.5995 7.45351C71.1015 6.77226 71.7919 6.26136 72.6703 5.92075C73.5664 5.56221 74.5883 5.38293 75.7358 5.38293C77.5282 5.38293 78.9804 5.77733 80.0921 6.56611C81.2034 7.3549 81.7861 8.5112 81.8399 10.035H78.4784C78.4425 9.53305 78.1917 9.10277 77.7256 8.74423C77.2594 8.38572 76.5873 8.20644 75.7089 8.20644C74.9199 8.20644 74.3106 8.35881 73.8803 8.66356C73.4501 8.96832 73.2348 9.36271 73.2348 9.84674C73.2348 10.3129 73.4052 10.6714 73.7458 10.9224C74.1042 11.1733 74.678 11.3436 75.4667 11.4333L76.7575 11.5677C78.4784 11.747 79.823 12.2221 80.7911 12.9929C81.7771 13.7638 82.2702 14.8036 82.2702 16.1123C82.2702 17.0805 82.0011 17.923 81.4635 18.64C80.9436 19.339 80.2083 19.8858 79.2585 20.2802C78.3083 20.6746 77.1877 20.8719 75.897 20.8719Z" fill="white"/>
<path d="M84.4433 3.49578C84.8021 3.87223 85.3486 4.06048 86.0839 4.06048C86.8188 4.06048 87.3566 3.87223 87.6972 3.49578C88.0377 3.10139 88.2081 2.61736 88.2081 2.04369C88.2081 1.43415 88.0377 0.94118 87.6972 0.564695C87.3566 0.188242 86.8188 0 86.0839 0C85.3486 0 84.8021 0.188242 84.4433 0.564695C84.1028 0.94118 83.9326 1.43415 83.9326 2.04369C83.9326 2.61736 84.1028 3.10139 84.4433 3.49578Z" fill="white"/>
<path fill-rule="evenodd" clip-rule="evenodd" d="M98.4341 20.9256C97.1434 20.9256 96.0052 20.7193 95.0191 20.307C94.0331 19.8947 93.1995 19.3388 92.5181 18.6398C91.837 17.9229 91.3171 17.1159 90.9586 16.2195C90.618 15.3233 90.4476 14.3911 90.4476 13.423V12.8583C90.4476 11.8544 90.627 10.9043 90.9855 10.008C91.3619 9.09369 91.8908 8.28697 92.5719 7.58782C93.2713 6.87073 94.1138 6.315 95.0999 5.92061C96.0856 5.50828 97.1972 5.30212 98.4341 5.30212C99.671 5.30212 100.783 5.50828 101.768 5.92061C102.754 6.315 103.588 6.87073 104.269 7.58782C104.968 8.28697 105.497 9.09369 105.856 10.008C106.214 10.9043 106.394 11.8544 106.394 12.8583V13.423C106.394 14.3911 106.214 15.3233 105.856 16.2195C105.515 17.1159 105.004 17.9229 104.323 18.6398C103.642 19.3388 102.808 19.8947 101.822 20.307C100.837 20.7193 99.7069 20.9256 98.4341 20.9256ZM98.4341 17.7255C99.3484 17.7255 100.119 17.5282 100.747 17.1338C101.374 16.7215 101.849 16.175 102.172 15.4936C102.495 14.7945 102.656 14.0057 102.656 13.1273C102.656 12.2309 102.486 11.4421 102.145 10.7609C101.822 10.0617 101.338 9.51496 100.693 9.12057C100.065 8.70823 99.3126 8.50209 98.4341 8.50209C97.5557 8.50209 96.7939 8.70823 96.1484 9.12057C95.5211 9.51496 95.0371 10.0617 94.6962 10.7609C94.3557 11.4421 94.1856 12.2309 94.1856 13.1273C94.1856 14.0057 94.3467 14.7945 94.6696 15.4936C95.0102 16.175 95.4942 16.7215 96.1215 17.1338C96.7491 17.5282 97.5198 17.7255 98.4341 17.7255Z" fill="white"/>
<path d="M111.61 8.37161C111.481 8.69284 111.374 9.04071 111.287 9.41524V5.81701H108.329V20.4186H112.067V11.8405C112.067 10.8904 112.345 10.1374 112.901 9.5817C113.474 9.00804 114.218 8.72119 115.133 8.72119C116.029 8.72119 116.728 8.99907 117.23 9.55479C117.75 10.1105 118.01 10.8366 118.01 11.7329V20.4186H121.748V12.0556C121.748 9.83267 121.299 8.16546 120.403 7.05398C119.507 5.92459 118.189 5.35986 116.45 5.35986H116.289C115.124 5.35986 114.146 5.61086 113.358 6.1128C112.587 6.61477 112.004 7.36771 111.61 8.37161Z" fill="white"/>
<path d="M63.9016 8.61853V20.4235H67.6396V5.8219H61.8581V8.61853H63.9016Z" fill="white"/>
<path d="M84.7175 8.61853V20.4235H88.4551V5.8219H82.6736V8.61853H84.7175Z" fill="white"/>
<path fill-rule="evenodd" clip-rule="evenodd" d="M30.3846 23.4107C36.8491 23.4107 42.0899 18.17 42.0899 11.7054C42.0899 5.24067 36.8491 0 30.3846 0C23.9198 0 18.6792 5.24067 18.6792 11.7054C18.6792 18.17 23.9198 23.4107 30.3846 23.4107ZM38.9991 10.4907C37.9076 11.7671 36.3702 12.5619 34.6668 12.5619C31.3556 12.5619 28.6713 9.55811 28.6713 5.85272C28.6713 4.92051 28.8412 4.0327 29.1483 3.22594C24.9991 3.85612 21.8195 7.43871 21.8195 11.7639C21.8195 13.0259 22.0902 14.2246 22.5767 15.3052C23.0701 14.8462 23.7637 14.5605 24.5318 14.5605C26.0297 14.5605 27.244 15.647 27.244 16.9872C27.244 17.8871 26.6965 18.6726 25.8832 19.0916C27.2093 19.921 28.7766 20.4003 30.4558 20.4003C35.2256 20.4003 39.0923 16.5336 39.0923 11.7639C39.0923 11.3314 39.0602 10.9062 38.9991 10.4907Z" fill="white"/>
<mask id="mask0_1_15241" style="mask-type:luminance" maskUnits="userSpaceOnUse" x="18" y="0" width="25" height="24">
<path fill-rule="evenodd" clip-rule="evenodd" d="M30.3755 23.4385C36.8401 23.4385 42.0808 18.1978 42.0808 11.7332C42.0808 5.26851 36.8401 0.027832 30.3755 0.027832C23.9108 0.027832 18.6701 5.26851 18.6701 11.7332C18.6701 18.1978 23.9108 23.4385 30.3755 23.4385ZM38.99 10.5186C37.8985 11.7949 36.3611 12.5897 34.6578 12.5897C31.3465 12.5897 28.6623 9.58594 28.6623 5.88055C28.6623 4.94834 28.8321 4.06053 29.1392 3.25377C24.99 3.88395 21.8105 7.46655 21.8105 11.7917C21.8105 13.0537 22.0811 14.2524 22.5676 15.3331C23.0611 14.874 23.7546 14.5883 24.5227 14.5883C26.0206 14.5883 27.2349 15.6748 27.2349 17.015C27.2349 17.9149 26.6874 18.7004 25.8741 19.1195C27.2002 19.9489 28.7675 20.4281 30.4468 20.4281C35.2165 20.4281 39.0832 16.5614 39.0832 11.7917C39.0832 11.3592 39.0512 10.934 38.99 10.5186Z" fill="white"/>
</mask>
<g mask="url(#mask0_1_15241)">
<path d="M38.9962 10.5064L39.8432 10.3812L39.5684 8.5194L38.3452 9.94974L38.9962 10.5064ZM29.1454 3.2416L29.9459 3.54626L30.468 2.17442L29.0168 2.39483L29.1454 3.2416ZM22.5738 15.3209L21.7928 15.6725L22.2829 16.7613L23.1572 15.948L22.5738 15.3209ZM25.8803 19.1073L25.4881 18.3458L24.1499 19.0355L25.4262 19.8336L25.8803 19.1073ZM41.2307 11.7211C41.2307 17.7128 36.3734 22.5701 30.3817 22.5701V24.283C37.3194 24.283 42.9436 18.6588 42.9436 11.7211H41.2307ZM30.3817 0.872135C36.3734 0.872135 41.2307 5.72937 41.2307 11.7211H42.9436C42.9436 4.78332 37.3194 -0.84082 30.3817 -0.84082V0.872135ZM19.5328 11.7211C19.5328 5.72937 24.39 0.872135 30.3817 0.872135V-0.84082C23.444 -0.84082 17.8198 4.78332 17.8198 11.7211H19.5328ZM30.3817 22.5701C24.39 22.5701 19.5328 17.7128 19.5328 11.7211H17.8198C17.8198 18.6588 23.444 24.283 30.3817 24.283V22.5701ZM34.664 13.4341C36.6454 13.4341 38.4119 12.5075 39.6472 11.063L38.3452 9.94974C37.3976 11.0579 36.0893 11.7211 34.664 11.7211V13.4341ZM27.8119 5.86838C27.8119 9.95368 30.7916 13.4341 34.664 13.4341V11.7211C31.9138 11.7211 29.5249 9.19388 29.5249 5.86838H27.8119ZM28.3449 2.93694C28.0009 3.8408 27.8119 4.83186 27.8119 5.86838H29.5249C29.5249 5.04047 29.6758 4.25588 29.9459 3.54626L28.3449 2.93694ZM22.6732 11.7796C22.6732 7.8841 25.537 4.65595 29.274 4.0884L29.0168 2.39483C24.4553 3.08763 20.9602 7.02464 20.9602 11.7796H22.6732ZM23.3548 14.9693C22.9171 13.997 22.6732 12.918 22.6732 11.7796H20.9602C20.9602 13.1651 21.2576 14.4835 21.7928 15.6725L23.3548 14.9693ZM24.5289 13.7196C23.5488 13.7196 22.6456 14.0843 21.9904 14.6938L23.1572 15.948C23.4889 15.6394 23.9728 15.4326 24.5289 15.4326V13.7196ZM28.0976 17.0029C28.0976 15.1025 26.4078 13.7196 24.5289 13.7196V15.4326C25.6459 15.4326 26.3847 16.2228 26.3847 17.0029H28.0976ZM26.2726 19.8688C27.3268 19.3255 28.0976 18.2702 28.0976 17.0029H26.3847C26.3847 17.5353 26.0604 18.0511 25.4881 18.3458L26.2726 19.8688ZM30.453 19.5593C28.9389 19.5593 27.5283 19.1278 26.3345 18.3811L25.4262 19.8336C26.8845 20.7453 28.6085 21.2723 30.453 21.2723V19.5593ZM38.2328 11.7796C38.2328 16.0761 34.7495 19.5593 30.453 19.5593V21.2723C35.6955 21.2723 39.9457 17.0224 39.9457 11.7796H38.2328ZM38.1488 10.6316C38.2039 11.0057 38.2328 11.389 38.2328 11.7796H39.9457C39.9457 11.3049 39.9108 10.838 39.8432 10.3812L38.1488 10.6316Z" fill="white"/>
</g>
<path d="M233.182 20.9157C231.329 20.9157 229.69 20.5517 228.267 19.8233C226.843 19.0785 225.743 18.0278 224.965 16.6706C224.187 15.3136 223.798 13.7165 223.798 11.8795C223.798 10.0425 224.187 8.44548 224.965 7.08843C225.743 5.71478 226.843 4.66391 228.267 3.93572C229.69 3.19099 231.329 2.8186 233.182 2.8186C234.44 2.8186 235.549 2.95102 236.508 3.21582C237.485 3.46406 238.379 3.86124 239.189 4.40739V8.00692C238.461 7.41112 237.626 6.98084 236.682 6.71604C235.756 6.43469 234.696 6.29404 233.505 6.29404C232.396 6.29404 231.394 6.52573 230.501 6.98912C229.624 7.43595 228.929 8.08137 228.416 8.92542C227.903 9.76943 227.646 10.7541 227.646 11.8795C227.646 13.0215 227.878 14.0227 228.341 14.8833C228.821 15.7273 229.491 16.381 230.352 16.8444C231.212 17.3078 232.206 17.5395 233.331 17.5395C234.357 17.5395 235.251 17.3574 236.012 16.9933V13.642H233.207V10.8617H239.661V19.2275C238.023 20.3528 235.863 20.9157 233.182 20.9157Z" fill="white"/>
<path d="M240.525 8.63402H244.149V10.3469C244.629 9.76769 245.299 9.3291 246.16 9.03123C247.02 8.71678 247.997 8.55957 249.089 8.55957V11.4144C247.947 11.4144 246.938 11.5881 246.061 11.9357C245.2 12.2832 244.604 12.8128 244.273 13.5244V20.5498H240.525V8.63402Z" fill="white"/>
<path d="M256.305 20.9198C254.021 20.9198 252.226 20.3734 250.918 19.2814C249.611 18.1726 248.957 16.6251 248.957 14.6391C248.957 12.6697 249.537 11.1141 250.695 9.97216C251.87 8.83021 253.541 8.25928 255.71 8.25928C257.133 8.25928 258.341 8.52407 259.334 9.05363C260.327 9.58323 261.08 10.3197 261.593 11.263C262.106 12.1898 262.362 13.2407 262.362 14.4157V15.93H252.532C252.797 17.4526 254.22 18.214 256.802 18.214C257.563 18.214 258.349 18.1477 259.16 18.0151C259.971 17.8829 260.674 17.7008 261.27 17.4691V20.1006C260.691 20.3489 259.946 20.5474 259.036 20.6964C258.126 20.8451 257.215 20.9198 256.305 20.9198ZM258.812 13.4972C258.763 12.7028 258.465 12.0905 257.919 11.6602C257.373 11.2134 256.62 10.9899 255.66 10.9899C254.716 10.9899 253.972 11.2134 253.426 11.6602C252.88 12.1071 252.582 12.7194 252.532 13.4972H258.812Z" fill="white"/>
<path d="M270.04 20.9198C267.756 20.9198 265.96 20.3734 264.653 19.2814C263.346 18.1726 262.692 16.6251 262.692 14.6391C262.692 12.6697 263.271 11.1141 264.43 9.97216C265.605 8.83021 267.276 8.25928 269.444 8.25928C270.868 8.25928 272.076 8.52407 273.069 9.05363C274.062 9.58323 274.814 10.3197 275.327 11.263C275.84 12.1898 276.097 13.2407 276.097 14.4157V15.93H266.267C266.531 17.4526 267.955 18.214 270.536 18.214C271.298 18.214 272.084 18.1477 272.895 18.0151C273.706 17.8829 274.409 17.7008 275.005 17.4691V20.1006C274.425 20.3489 273.681 20.5474 272.771 20.6964C271.86 20.8451 270.95 20.9198 270.04 20.9198ZM272.547 13.4972C272.497 12.7028 272.2 12.0905 271.654 11.6602C271.107 11.2134 270.354 10.9899 269.395 10.9899C268.451 10.9899 267.707 11.2134 267.161 11.6602C266.614 12.1071 266.316 12.7194 266.267 13.4972H272.547Z" fill="white"/>
<path d="M276.923 8.63163H280.547V10.0963C281.094 9.48395 281.739 9.02884 282.484 8.73094C283.245 8.41649 284.039 8.25928 284.867 8.25928C286.489 8.25928 287.697 8.69783 288.491 9.57495C289.302 10.4356 289.708 11.6023 289.708 13.0752V20.5474H285.959V13.4972C285.959 11.9581 285.247 11.1886 283.824 11.1886C283.195 11.1886 282.608 11.3458 282.062 11.6602C281.516 11.9581 281.052 12.405 280.671 13.0007V20.5474H276.923V8.63163Z" fill="white"/>
<path d="M293.018 6.79388C292.439 6.79388 291.951 6.60357 291.554 6.22291C291.156 5.84228 290.958 5.36234 290.958 4.78309C290.958 4.22043 291.156 3.74877 291.554 3.36811C291.951 2.97093 292.439 2.77234 293.018 2.77234C293.597 2.77234 294.086 2.97093 294.483 3.36811C294.88 3.74877 295.079 4.22043 295.079 4.78309C295.079 5.36234 294.88 5.84228 294.483 6.22291C294.086 6.60357 293.597 6.79388 293.018 6.79388ZM291.131 8.63088H294.905V20.5466H291.131V8.63088Z" fill="white"/>
<path d="M301.312 20.9198C300.418 20.9198 299.458 20.8205 298.432 20.6217C297.423 20.4397 296.628 20.1749 296.049 19.8274V16.8982C296.711 17.2953 297.506 17.6181 298.432 17.8663C299.359 18.1147 300.22 18.2389 301.014 18.2389C301.693 18.2389 302.189 18.1806 302.503 18.0649C302.818 17.949 302.975 17.7339 302.975 17.4195C302.975 17.1712 302.884 16.9727 302.702 16.8237C302.52 16.6582 302.239 16.5175 301.858 16.4017C301.494 16.2693 300.881 16.0789 300.021 15.8307C299.012 15.5328 298.217 15.2349 297.638 14.937C297.075 14.6226 296.645 14.2337 296.347 13.7703C296.066 13.3069 295.925 12.7111 295.925 11.9829C295.925 10.7417 296.413 9.81492 297.39 9.2026C298.383 8.57369 299.723 8.25928 301.411 8.25928C302.239 8.25928 303.091 8.35028 303.968 8.53235C304.862 8.69783 305.549 8.92125 306.029 9.2026V12.0574C305.549 11.7429 304.92 11.4864 304.142 11.2878C303.381 11.0893 302.636 10.9899 301.908 10.9899C301.229 10.9899 300.699 11.0561 300.319 11.1886C299.955 11.3209 299.773 11.5692 299.773 11.9333C299.773 12.2477 299.947 12.4877 300.294 12.6532C300.658 12.8187 301.329 13.0256 302.305 13.2738L302.801 13.3979C303.844 13.6793 304.655 13.9937 305.234 14.3412C305.813 14.6722 306.219 15.0777 306.451 15.5576C306.699 16.021 306.823 16.6085 306.823 17.3202C306.823 18.4124 306.351 19.2895 305.408 19.9516C304.465 20.5972 303.099 20.9198 301.312 20.9198Z" fill="white"/>
<path d="M307.673 2.2063H311.421V10.0012C311.984 9.42193 312.621 8.99164 313.333 8.71029C314.044 8.41239 314.806 8.26346 315.617 8.26346C317.239 8.26346 318.447 8.70202 319.241 9.57913C320.052 10.4397 320.457 11.6065 320.457 13.0794V20.5515H316.709V13.5014C316.709 11.9623 315.997 11.1927 314.574 11.1927C313.945 11.1927 313.358 11.35 312.812 11.6644C312.265 11.9623 311.802 12.4091 311.421 13.0049V20.5515H307.673V2.2063Z" fill="white"/>
<path fill-rule="evenodd" clip-rule="evenodd" d="M210.995 5.7096C210.995 8.86293 208.439 11.4192 205.285 11.4192C202.132 11.4192 199.576 8.86293 199.576 5.7096C199.576 2.55628 202.132 0 205.285 0C208.439 0 210.995 2.55628 210.995 5.7096ZM192.004 11.0043C198.225 10.585 203.646 15.2422 204.151 21.4759C204.204 22.1218 204.201 22.7598 204.148 23.3845C197.927 23.8038 192.506 19.1465 192.001 12.9129C191.949 12.267 191.951 11.6292 192.004 11.0043ZM208.172 23.1662C214.406 22.6612 219.063 17.24 218.644 11.0195C218.019 10.9661 217.381 10.9636 216.735 11.016C210.502 11.5209 205.844 16.9422 206.264 23.1626C206.889 23.216 207.526 23.2186 208.172 23.1662Z" fill="white"/>
<g clip-path="url(#clip0_1_15241)">
<path d="M434.616 3.16516V22.5879H432.262V14.1419H421.727V22.5879H419.373V3.16516H421.727V11.8465H432.262V3.16516H434.616Z" fill="white"/>
<path d="M443.833 7.57776C447.187 7.57776 449.924 9.1669 449.924 12.5806V19.82V22.8216L447.57 22.8511V20.6734C446.481 22.0565 444.215 22.8805 442.332 22.8805C439.271 22.8805 437.035 21.5857 437.035 18.9371C437.035 16.8771 438.506 15.3174 440.802 14.6111C442.508 14.0814 444.362 13.846 447.57 13.7871V12.8749C447.57 10.9326 446.04 9.63775 443.833 9.63775C441.596 9.63775 439.83 10.5795 439.036 12.4334L437.3 11.168C438.065 8.99034 440.389 7.57776 443.833 7.57776ZM439.389 18.9371C439.389 20.1731 440.772 20.9088 442.45 20.9088C444.804 20.9088 447.57 19.5845 447.57 17.6423V15.6706C444.568 15.7883 442.92 16.0237 441.537 16.4063C440.301 16.7594 439.389 17.6423 439.389 18.9371Z" fill="white"/>
<path d="M469.889 7.57776C472.714 7.57776 475.509 9.28461 475.509 13.1691V22.5862H473.155V13.4046C473.155 10.7266 471.625 9.63775 469.683 9.63775C467.387 9.63775 465.327 11.374 465.327 14.5229V22.5862H462.973V13.4046C462.973 10.7266 461.443 9.63775 459.5 9.63775C457.558 9.63775 455.145 11.0797 455.145 14.7288V22.5862H452.791V7.87206H454.851L454.998 10.1675C456.057 8.37232 457.882 7.57776 459.706 7.57776C461.766 7.57776 463.797 8.49005 464.768 10.4618C465.68 8.4606 468.035 7.57776 469.889 7.57776Z" fill="white"/>
<path d="M479.484 5.16018C478.513 5.16018 477.719 4.36562 477.719 3.39449C477.719 2.42335 478.513 1.62878 479.484 1.62878C480.455 1.62878 481.25 2.42335 481.25 3.39449C481.25 4.36562 480.455 5.16018 479.484 5.16018ZM478.307 22.5818V7.8676H480.661V22.5818H478.307Z" fill="white"/>
<path d="M483.598 1.09741H485.923V22.5801H483.598V1.09741Z" fill="white"/>
<path d="M491.956 18.5168C491.956 19.9588 492.78 20.724 494.075 20.724C495.134 20.724 495.959 20.1648 496.724 19.7234L497.489 21.5479C496.577 22.3719 495.311 22.8722 493.693 22.8722C491.515 22.8722 489.602 21.7834 489.602 18.9288V9.89432H486.659V7.86378H489.602V3.68494H491.956V7.86378H497.401V9.89432H491.956V18.5168Z" fill="white"/>
<path d="M497.483 15.2943C497.483 10.9978 500.926 7.55469 505.134 7.55469C509.343 7.55469 512.786 10.9978 512.786 15.2943C512.786 19.5614 509.343 22.828 505.134 22.828C500.926 22.828 497.483 19.5614 497.483 15.2943ZM499.837 15.2355C499.837 18.2666 502.162 20.562 505.134 20.562C508.107 20.562 510.431 18.2666 510.431 15.2355C510.431 12.2044 508.107 9.73238 505.134 9.73238C502.162 9.73238 499.837 12.2044 499.837 15.2355Z" fill="white"/>
<path d="M520.956 7.57776C524.105 7.57776 526.695 9.37289 526.695 13.1691V22.5862H524.34V13.9932C524.34 10.7266 522.751 9.63775 520.721 9.63775C518.572 9.63775 516.159 10.9915 516.159 14.7583V22.5862H513.805V7.87206H515.865L516.012 10.1675C517.042 8.31348 518.926 7.57776 520.956 7.57776Z" fill="white"/>
<path d="M401.145 7.6758V0H403.854V7.6758H401.145Z" fill="white"/>
<path d="M400.361 12.8131L390.702 8.94956L391.708 6.4342L402.493 10.7482L413.278 6.4342L414.284 8.94956L404.673 12.7942L411.687 21.7571L409.554 23.4268L402.524 14.4443L395.907 23.3971L393.728 21.7868L400.361 12.8131Z" fill="white"/>
</g>
<g clip-path="url(#clip1_1_15241)">
<path fill-rule="evenodd" clip-rule="evenodd" d="M600.769 0H603.444L596.972 6.47197V3.79633C596.972 1.69968 598.672 0 600.769 0ZM596.972 15.9184V9.95699L603.544 3.38529L613.401 13.2424L616.481 10.1621L620.383 14.0636V19.6144C620.383 19.7465 620.376 19.8771 620.363 20.0057L616.481 16.1238L613.401 19.2042L603.544 9.34704L596.972 15.9184ZM596.972 19.4035V19.6144C596.972 21.711 598.672 23.4107 600.769 23.4107H616.587C617.61 23.4107 618.538 23.0061 619.221 22.3483L616.481 19.6089L613.401 22.6892L603.544 12.8321L596.972 19.4035ZM620.383 3.79633V10.5785L616.481 6.67704L613.401 9.7574L603.644 0H616.587C618.683 0 620.383 1.69968 620.383 3.79633Z" fill="white"/>
<path d="M632.965 18.6241C631.624 18.6241 630.434 18.3394 629.397 17.7699C628.372 17.2005 627.574 16.3969 627.005 15.3592C626.436 14.3089 626.151 13.0941 626.151 11.7148C626.151 10.3481 626.442 9.1459 627.024 8.10823C627.619 7.05792 628.435 6.24804 629.473 5.67859C630.523 5.09647 631.713 4.80542 633.041 4.80542C634.319 4.80542 635.464 5.06484 636.477 5.58367L636.211 7.89943C635.667 7.659 635.142 7.47552 634.636 7.34897C634.142 7.20978 633.604 7.14017 633.022 7.14017C631.668 7.14017 630.624 7.55777 629.89 8.39296C629.169 9.22815 628.808 10.3354 628.808 11.7148C628.808 13.0941 629.163 14.2013 629.871 15.0366C630.592 15.8717 631.624 16.2893 632.965 16.2893C633.56 16.2893 634.104 16.2261 634.598 16.0995C635.104 15.973 635.642 15.7831 636.211 15.5301L636.477 17.8458C635.376 18.3647 634.205 18.6241 632.965 18.6241Z" fill="white"/>
<path d="M642.28 18.5455C641.281 18.5455 640.414 18.3241 639.68 17.8812C638.946 17.4383 638.383 16.8435 637.99 16.0969C637.598 15.3503 637.402 14.5277 637.402 13.6293C637.402 12.7308 637.598 11.9019 637.99 11.1427C638.383 10.3834 638.946 9.78232 639.68 9.33942C640.414 8.89651 641.281 8.67505 642.28 8.67505C643.28 8.67505 644.147 8.89651 644.881 9.33942C645.615 9.78232 646.178 10.3834 646.57 11.1427C646.962 11.9019 647.158 12.7308 647.158 13.6293C647.158 14.5277 646.962 15.3503 646.57 16.0969C646.178 16.8435 645.615 17.4383 644.881 17.8812C644.147 18.3241 643.28 18.5455 642.28 18.5455ZM642.28 16.6094C643.052 16.6094 643.653 16.3373 644.083 15.7932C644.526 15.249 644.748 14.5277 644.748 13.6293C644.748 12.7182 644.526 11.9905 644.083 11.4464C643.653 10.8896 643.052 10.6112 642.28 10.6112C641.508 10.6112 640.901 10.8896 640.458 11.4464C640.028 11.9905 639.813 12.7182 639.813 13.6293C639.813 14.5277 640.028 15.249 640.458 15.7932C640.901 16.3373 641.508 16.6094 642.28 16.6094Z" fill="white"/>
<path d="M657.99 18.5455C656.99 18.5455 656.123 18.3241 655.389 17.8812C654.656 17.4383 654.092 16.8435 653.7 16.0969C653.308 15.3503 653.112 14.5277 653.112 13.6293C653.112 12.7308 653.308 11.9019 653.7 11.1427C654.092 10.3834 654.656 9.78232 655.389 9.33942C656.123 8.89651 656.99 8.67505 657.99 8.67505C658.99 8.67505 659.856 8.89651 660.59 9.33942C661.324 9.78232 661.888 10.3834 662.28 11.1427C662.672 11.9019 662.868 12.7308 662.868 13.6293C662.868 14.5277 662.672 15.3503 662.28 16.0969C661.888 16.8435 661.324 17.4383 660.59 17.8812C659.856 18.3241 658.99 18.5455 657.99 18.5455ZM657.99 16.6094C658.762 16.6094 659.363 16.3373 659.793 15.7932C660.236 15.249 660.458 14.5277 660.458 13.6293C660.458 12.7182 660.236 11.9905 659.793 11.4464C659.363 10.8896 658.762 10.6112 657.99 10.6112C657.218 10.6112 656.611 10.8896 656.168 11.4464C655.737 11.9905 655.522 12.7182 655.522 13.6293C655.522 14.5277 655.737 15.249 656.168 15.7932C656.611 16.3373 657.218 16.6094 657.99 16.6094Z" fill="white"/>
<path d="M664.513 8.86486H666.715L666.772 9.87089C667.05 9.55454 667.404 9.27613 667.835 9.0357C668.278 8.79528 668.74 8.67505 669.221 8.67505C669.372 8.67505 669.511 8.68772 669.638 8.71303L669.467 11.0288C669.227 10.9655 668.955 10.9339 668.651 10.9339C668.259 10.9339 667.898 11.0288 667.569 11.2186C667.24 11.3958 667.006 11.6172 666.867 11.8829V18.3557H664.513V8.86486Z" fill="white"/>
<path d="M672.718 18.5423C671.933 18.5423 671.275 18.2892 670.743 17.7831C670.225 17.2642 669.965 16.5682 669.965 15.6951C669.965 14.8725 670.263 14.2145 670.857 13.721C671.452 13.2148 672.155 12.8605 672.964 12.658C673.774 12.4429 674.553 12.3227 675.299 12.2974C675.274 11.7406 675.128 11.342 674.863 11.1015C674.61 10.8611 674.186 10.7409 673.591 10.7409C673.173 10.7409 672.762 10.7978 672.357 10.9117C671.965 11.0256 671.509 11.2091 670.99 11.4622L670.781 9.54503C671.933 8.98822 673.084 8.70984 674.236 8.70984C675.35 8.70984 676.198 9.01353 676.78 9.62096C677.374 10.2284 677.672 11.1964 677.672 12.5251V15.0877C677.672 15.5685 677.691 15.9165 677.729 16.1317C677.779 16.3341 677.855 16.467 677.957 16.5303C678.07 16.5809 678.254 16.6062 678.507 16.6062H678.811L678.602 18.5423H677.748C677.229 18.5423 676.792 18.4474 676.438 18.2576C676.084 18.0551 675.812 17.7831 675.622 17.4414C675.318 17.7831 674.9 18.0551 674.369 18.2576C673.85 18.4474 673.3 18.5423 672.718 18.5423ZM673.705 16.7391C673.945 16.7391 674.217 16.6821 674.521 16.5682C674.825 16.4417 675.09 16.2708 675.318 16.0557V13.8918C674.559 13.9298 673.888 14.0943 673.306 14.3853C672.724 14.6764 672.433 15.0814 672.433 15.6002C672.433 15.9925 672.534 16.2835 672.737 16.4733C672.939 16.6505 673.262 16.7391 673.705 16.7391Z" fill="white"/>
<path d="M688.778 4.1239V18.3601H686.557L686.519 17.7527C686.152 18.0185 685.766 18.2209 685.361 18.3601C684.969 18.4867 684.501 18.55 683.957 18.55C683.033 18.55 682.236 18.3285 681.565 17.8856C680.907 17.4427 680.407 16.8479 680.065 16.1013C679.724 15.3547 679.553 14.5322 679.553 13.6337C679.553 12.7352 679.724 11.9127 680.065 11.1661C680.407 10.4195 680.907 9.82472 681.565 9.38182C682.236 8.93891 683.033 8.71747 683.957 8.71747C684.88 8.71747 685.703 8.97054 686.424 9.47673V4.1239H688.778ZM684.298 16.6138C685.045 16.6138 685.602 16.3481 685.969 15.8166C686.348 15.2851 686.538 14.5575 686.538 13.6337C686.538 12.7099 686.348 11.9823 685.969 11.4508C685.602 10.9193 685.045 10.6536 684.298 10.6536C683.564 10.6536 682.988 10.9256 682.571 11.4698C682.166 12.0139 681.964 12.7352 681.964 13.6337C681.964 14.5322 682.166 15.2535 682.571 15.7976C682.988 16.3418 683.564 16.6138 684.298 16.6138Z" fill="white"/>
<path d="M695.266 18.5455C694.267 18.5455 693.4 18.3241 692.666 17.8812C691.932 17.4383 691.369 16.8435 690.976 16.0969C690.584 15.3503 690.388 14.5277 690.388 13.6293C690.388 12.7308 690.584 11.9019 690.976 11.1427C691.369 10.3834 691.932 9.78232 692.666 9.33942C693.4 8.89651 694.267 8.67505 695.266 8.67505C696.266 8.67505 697.133 8.89651 697.867 9.33942C698.601 9.78232 699.164 10.3834 699.556 11.1427C699.948 11.9019 700.144 12.7308 700.144 13.6293C700.144 14.5277 699.948 15.3503 699.556 16.0969C699.164 16.8435 698.601 17.4383 697.867 17.8812C697.133 18.3241 696.266 18.5455 695.266 18.5455ZM695.266 16.6094C696.038 16.6094 696.639 16.3373 697.069 15.7932C697.512 15.249 697.734 14.5277 697.734 13.6293C697.734 12.7182 697.512 11.9905 697.069 11.4464C696.639 10.8896 696.038 10.6112 695.266 10.6112C694.494 10.6112 693.887 10.8896 693.444 11.4464C693.014 11.9905 692.798 12.7182 692.798 13.6293C692.798 14.5277 693.014 15.249 693.444 15.7932C693.887 16.3373 694.494 16.6094 695.266 16.6094Z" fill="white"/>
<path d="M651.38 3.81201H648.849V18.3646H651.38V3.81201Z" fill="white"/>
</g>
<g clip-path="url(#clip2_1_15241)">
<path d="M888.416 22.1135C887.028 22.1135 885.815 21.8113 884.776 21.2068C883.746 20.5937 882.943 19.7431 882.367 18.655C881.791 17.5583 881.503 16.2802 881.503 14.8208C881.503 13.2923 881.787 11.9711 882.354 10.857C882.921 9.73442 883.711 8.87087 884.724 8.26638C885.745 7.65326 886.941 7.34668 888.311 7.34668C889.734 7.34668 890.942 7.67053 891.937 8.3182C892.941 8.96584 893.692 9.88986 894.189 11.0902C894.695 12.2906 894.914 13.7198 894.844 15.3778H892.487V14.5488C892.461 12.8303 892.107 11.5479 891.427 10.7016C890.746 9.84668 889.734 9.41923 888.389 9.41923C886.949 9.41923 885.854 9.87691 885.103 10.7923C884.353 11.7077 883.977 13.0203 883.977 14.7301C883.977 16.3795 884.353 17.6576 885.103 18.5643C885.854 19.471 886.923 19.9244 888.311 19.9244C889.245 19.9244 890.056 19.7128 890.746 19.2897C891.436 18.8665 891.977 18.2577 892.369 17.4633L894.608 18.2275C894.058 19.4624 893.229 20.421 892.121 21.1032C891.021 21.7767 889.786 22.1135 888.416 22.1135ZM883.192 15.3778V13.5254H893.639V15.3778H883.192Z" fill="white"/>
<path d="M874.353 21.718V7.7284H876.434V11.1092L876.094 10.6688C876.26 10.237 876.474 9.83978 876.735 9.4771C877.006 9.11439 877.307 8.81647 877.639 8.5833C878.005 8.28971 878.42 8.06517 878.882 7.90973C879.345 7.7543 879.816 7.66363 880.297 7.63772C880.776 7.60318 881.226 7.6334 881.645 7.7284V9.8916C881.156 9.76206 880.619 9.72752 880.035 9.78797C879.45 9.84842 878.909 10.06 878.411 10.4227C877.958 10.7422 877.604 11.1308 877.351 11.5885C877.106 12.0462 876.936 12.5427 876.84 13.0781C876.744 13.6049 876.696 14.1446 876.696 14.6973V21.718H874.353Z" fill="white"/>
<path d="M865.203 22.1135C864.147 22.1135 863.262 21.9235 862.546 21.5436C861.839 21.155 861.302 20.6455 860.936 20.0151C860.578 19.3847 860.399 18.6938 860.399 17.9426C860.399 17.2085 860.538 16.5738 860.818 16.0384C861.106 15.4944 861.507 15.0453 862.022 14.6912C862.537 14.3286 863.152 14.0436 863.868 13.8363C864.54 13.655 865.291 13.4995 866.12 13.37C866.958 13.2318 867.804 13.1066 868.66 12.9944C869.515 12.8821 870.314 12.7741 871.056 12.6705L870.218 13.1498C870.244 11.9063 869.991 10.9866 869.458 10.3907C868.935 9.79487 868.027 9.49695 866.735 9.49695C865.88 9.49695 865.129 9.69124 864.483 10.0799C863.846 10.4598 863.397 11.0816 863.135 11.9451L860.922 11.2845C861.263 10.0583 861.922 9.09538 862.899 8.3959C863.877 7.69644 865.164 7.34668 866.762 7.34668C868.044 7.34668 869.144 7.57553 870.061 8.03321C870.986 8.48226 871.649 9.16447 872.051 10.0799C872.251 10.5116 872.378 10.9823 872.43 11.4918C872.483 11.9926 872.509 12.5194 872.509 13.0721V21.7249H870.44V18.37L870.925 18.6809C870.392 19.8122 869.646 20.6671 868.686 21.2456C867.735 21.8242 866.574 22.1135 865.203 22.1135ZM865.557 20.1835C866.395 20.1835 867.119 20.0367 867.73 19.7431C868.35 19.4408 868.847 19.0479 869.223 18.5643C869.598 18.0721 869.842 17.5367 869.956 16.9581C870.087 16.5263 870.157 16.047 870.165 15.5203C870.183 14.9849 870.192 14.5747 870.192 14.2897L871.003 14.6394C870.244 14.7431 869.498 14.8424 868.764 14.9374C868.031 15.0323 867.337 15.136 866.683 15.2482C866.028 15.3519 865.439 15.4771 864.916 15.6239C864.532 15.7448 864.169 15.9002 863.829 16.0902C863.497 16.2802 863.227 16.5263 863.017 16.8285C862.816 17.1222 862.716 17.4892 862.716 17.9296C862.716 18.3096 862.812 18.6722 863.004 19.0177C863.205 19.3631 863.51 19.6438 863.921 19.8597C864.339 20.0755 864.885 20.1835 865.557 20.1835Z" fill="white"/>
<path d="M846.168 21.719L841.847 7.71643L844.165 7.72938L847.32 17.9626L850.501 7.72938H852.556L855.725 17.9626L858.893 7.72938H861.197L856.877 21.719H854.939L851.522 11.0843L848.105 21.719H846.168Z" fill="white"/>
<path d="M834.523 22.1135C833.467 22.1135 832.581 21.9235 831.866 21.5436C831.159 21.155 830.622 20.6455 830.255 20.0151C829.897 19.3847 829.718 18.6938 829.718 17.9426C829.718 17.2085 829.858 16.5738 830.137 16.0384C830.425 15.4944 830.827 15.0453 831.342 14.6912C831.857 14.3286 832.472 14.0436 833.188 13.8363C833.86 13.655 834.611 13.4995 835.44 13.37C836.278 13.2318 837.124 13.1066 837.98 12.9944C838.835 12.8821 839.633 12.7741 840.375 12.6705L839.537 13.1498C839.564 11.9063 839.311 10.9866 838.778 10.3907C838.255 9.79487 837.347 9.49695 836.055 9.49695C835.2 9.49695 834.449 9.69124 833.803 10.0799C833.166 10.4598 832.717 11.0816 832.455 11.9451L830.242 11.2845C830.583 10.0583 831.241 9.09538 832.219 8.3959C833.196 7.69644 834.484 7.34668 836.081 7.34668C837.364 7.34668 838.464 7.57553 839.38 8.03321C840.306 8.48226 840.969 9.16447 841.37 10.0799C841.571 10.5116 841.698 10.9823 841.75 11.4918C841.802 11.9926 841.829 12.5194 841.829 13.0721V21.7249H839.76V18.37L840.244 18.6809C839.712 19.8122 838.966 20.6671 838.006 21.2456C837.054 21.8242 835.894 22.1135 834.523 22.1135ZM834.877 20.1835C835.715 20.1835 836.439 20.0367 837.05 19.7431C837.67 19.4408 838.167 19.0479 838.542 18.5643C838.918 18.0721 839.162 17.5367 839.276 16.9581C839.407 16.5263 839.476 16.047 839.485 15.5203C839.503 14.9849 839.511 14.5747 839.511 14.2897L840.323 14.6394C839.564 14.7431 838.817 14.8424 838.084 14.9374C837.351 15.0323 836.657 15.136 836.003 15.2482C835.348 15.3519 834.759 15.4771 834.235 15.6239C833.851 15.7448 833.489 15.9002 833.149 16.0902C832.817 16.2802 832.546 16.5263 832.337 16.8285C832.136 17.1222 832.036 17.4892 832.036 17.9296C832.036 18.3096 832.132 18.6722 832.324 19.0177C832.525 19.3631 832.83 19.6438 833.24 19.8597C833.659 20.0755 834.205 20.1835 834.877 20.1835Z" fill="white"/>
<path d="M825.826 21.7098V2.66833H828.156V21.7098H825.826Z" fill="white"/>
<path d="M817.779 22.1135C816.392 22.1135 815.178 21.8113 814.14 21.2068C813.11 20.5937 812.307 19.7431 811.731 18.655C811.155 17.5583 810.867 16.2802 810.867 14.8208C810.867 13.2923 811.15 11.9711 811.718 10.857C812.285 9.73442 813.075 8.87087 814.087 8.26638C815.108 7.65326 816.304 7.34668 817.675 7.34668C819.097 7.34668 820.306 7.67053 821.301 8.3182C822.305 8.96584 823.055 9.88986 823.553 11.0902C824.059 12.2906 824.277 13.7198 824.207 15.3778H821.851V14.5488C821.825 12.8303 821.471 11.5479 820.791 10.7016C820.11 9.84668 819.097 9.41923 817.753 9.41923C816.313 9.41923 815.218 9.87691 814.467 10.7923C813.717 11.7077 813.341 13.0203 813.341 14.7301C813.341 16.3795 813.717 17.6576 814.467 18.5643C815.218 19.471 816.287 19.9244 817.675 19.9244C818.608 19.9244 819.42 19.7128 820.11 19.2897C820.799 18.8665 821.34 18.2577 821.733 17.4633L823.972 18.2275C823.422 19.4624 822.593 20.421 821.484 21.1032C820.384 21.7767 819.15 22.1135 817.779 22.1135ZM812.556 15.3778V13.5254H823.003V15.3778H812.556Z" fill="white"/>
<path d="M803.053 22.1026C801.735 22.1026 800.605 21.7788 799.662 21.1311C798.719 20.4748 797.991 19.5897 797.476 18.4757C796.97 17.3617 796.716 16.1052 796.716 14.7062C796.716 13.3073 796.97 12.0508 797.476 10.9368C797.991 9.82282 798.719 8.94633 799.662 8.30729C800.605 7.65962 801.731 7.33577 803.04 7.33577C804.375 7.33577 805.497 7.6553 806.404 8.29434C807.312 8.93337 807.997 9.80987 808.46 10.9239C808.931 12.0378 809.167 13.2986 809.167 14.7062C809.167 16.0966 808.931 17.3531 808.46 18.4757C807.997 19.5897 807.312 20.4748 806.404 21.1311C805.497 21.7788 804.38 22.1026 803.053 22.1026ZM803.341 19.9912C804.292 19.9912 805.073 19.7667 805.684 19.3177C806.295 18.86 806.745 18.2339 807.033 17.4394C807.33 16.6363 807.478 15.7252 807.478 14.7062C807.478 13.67 807.33 12.7589 807.033 11.9731C806.745 11.1786 806.3 10.5612 805.697 10.1208C805.095 9.67169 804.332 9.44718 803.406 9.44718C802.446 9.44718 801.652 9.68033 801.024 10.1467C800.404 10.613 799.942 11.2434 799.636 12.0378C799.339 12.8323 799.191 13.7218 799.191 14.7062C799.191 15.6993 799.344 16.5974 799.649 17.4006C799.955 18.195 800.413 18.8254 801.024 19.2918C801.643 19.7581 802.416 19.9912 803.341 19.9912ZM807.478 21.714V11.4161H807.216V3.06116H809.56V21.714H807.478Z" fill="white"/>
<path d="M893.193 4.54959V4.47488L894.712 1.94421H893.326V1.38623H895.769V1.46092L894.259 3.98721H895.724V4.54959H893.193Z" fill="white"/>
<path d="M890.016 4.54959L890.993 1.38623H891.895L892.872 4.54959H892.25L891.38 1.75968H891.495L890.638 4.54959H890.016ZM890.603 3.89055V3.33257H892.29V3.89055H890.603Z" fill="white"/>
<path fill-rule="evenodd" clip-rule="evenodd" d="M782.302 0H770.472V23.4107H782.302C788.836 23.4107 794.133 18.17 794.133 11.7054C794.133 5.24067 788.836 0 782.302 0ZM783.411 20.0753C783.14 19.9961 782.861 19.6759 782.802 19.3694C782.763 19.1697 782.808 19.0319 783.098 18.4776C784.269 16.2393 784.778 14.1801 784.778 11.6836C784.778 9.2697 784.328 7.38956 783.209 5.13753C782.969 4.65543 782.774 4.20436 782.774 4.13891C782.774 3.89788 782.976 3.55008 783.195 3.41578C783.495 3.22985 784.001 3.26429 784.245 3.48809C784.339 3.57419 784.579 3.96674 784.781 4.35931C785.583 5.9123 786.13 7.61683 786.402 9.39022C786.569 10.4887 786.604 12.5685 786.468 13.5741C786.221 15.4266 785.726 17.0829 784.931 18.7014C784.45 19.6793 784.15 20.0822 783.899 20.0822C783.851 20.0822 783.767 20.096 783.718 20.1097C783.669 20.1235 783.53 20.1097 783.411 20.0753ZM780.153 18.3915C779.734 18.2709 779.431 17.7613 779.553 17.3825C779.581 17.2895 779.78 16.866 779.992 16.439C780.888 14.6312 781.261 12.6959 781.08 10.7951C780.93 9.23181 780.648 8.247 779.933 6.8076C779.456 5.83998 779.431 5.69192 779.71 5.29938C779.975 4.92749 780.637 4.86893 780.982 5.1823C781.223 5.39924 781.972 6.94536 782.261 7.81998C783.216 10.7125 783.07 13.822 781.847 16.6628C781.216 18.1194 780.773 18.5705 780.153 18.3915ZM776.249 16.0258C776.312 16.2978 776.535 16.5699 776.793 16.6835C776.908 16.7351 777.103 16.7627 777.225 16.7524C777.626 16.7007 777.824 16.4872 778.225 15.6849C778.922 14.2834 779.173 13.24 779.177 11.7215C779.18 10.2442 778.912 9.09064 778.257 7.76146C777.831 6.89713 777.584 6.65954 777.106 6.65954C776.824 6.65954 776.737 6.69052 776.535 6.87991C776.127 7.26216 776.137 7.45498 776.622 8.4226C777.723 10.6299 777.713 12.8027 776.583 15.0616C776.277 15.6746 776.211 15.8605 776.249 16.0258ZM773.656 15.0926C773.45 15.01 773.217 14.7345 773.147 14.4934C773.07 14.2248 773.133 14.0114 773.44 13.5121C773.837 12.8681 773.928 12.5238 773.928 11.6836C773.928 10.8434 773.837 10.4956 773.44 9.85508C773.304 9.63814 773.171 9.37643 773.14 9.27314C773.011 8.84959 773.37 8.32964 773.851 8.2401C774.259 8.16433 774.538 8.3434 774.914 8.9219C775.998 10.5954 775.998 12.8268 774.914 14.4865C774.531 15.0685 774.105 15.2751 773.656 15.0926Z" fill="white"/>
</g>
<g clip-path="url(#clip3_1_15241)">
<path d="M1070.81 23.4141C1069.94 23.4141 1069.23 23.1632 1068.67 22.6617C1068.13 22.1408 1067.86 21.5042 1067.86 20.7518C1067.86 19.9801 1068.13 19.3338 1068.67 18.8129C1069.23 18.292 1069.94 18.0316 1070.81 18.0316C1071.66 18.0316 1072.36 18.292 1072.9 18.8129C1073.46 19.3338 1073.74 19.9801 1073.74 20.7518C1073.74 21.5042 1073.46 22.1408 1072.9 22.6617C1072.36 23.1632 1071.66 23.4141 1070.81 23.4141Z" fill="white"/>
<path d="M1047.88 15.08C1047.88 13.4209 1048.19 11.9644 1048.8 10.7104C1049.44 9.45645 1050.3 8.49185 1051.38 7.81663C1052.46 7.14142 1053.66 6.80383 1055 6.80383C1056.13 6.80383 1057.13 7.03531 1057.98 7.49832C1058.84 7.96134 1059.51 8.56903 1059.97 9.3214V7.03531H1064.92V23.1826H1059.97V20.8965C1059.49 21.6489 1058.82 22.2566 1057.95 22.7196C1057.1 23.1826 1056.11 23.4141 1054.97 23.4141C1053.66 23.4141 1052.46 23.0765 1051.38 22.4013C1050.3 21.7068 1049.44 20.7325 1048.8 19.4785C1048.19 18.2053 1047.88 16.7391 1047.88 15.08ZM1059.97 15.109C1059.97 13.8743 1059.63 12.9 1058.93 12.1862C1058.26 11.4724 1057.43 11.1155 1056.44 11.1155C1055.46 11.1155 1054.62 11.4724 1053.93 12.1862C1053.25 12.8808 1052.91 13.8453 1052.91 15.08C1052.91 16.3147 1053.25 17.2986 1053.93 18.0317C1054.62 18.7455 1055.46 19.1024 1056.44 19.1024C1057.43 19.1024 1058.26 18.7455 1058.93 18.0317C1059.63 17.3179 1059.97 16.3436 1059.97 15.109Z" fill="white"/>
<path d="M1045.28 1.76746V23.1814H1040.33V1.76746H1045.28Z" fill="white"/>
<path d="M1034.29 5.35348C1033.42 5.35348 1032.71 5.1027 1032.15 4.60112C1031.61 4.08023 1031.34 3.44359 1031.34 2.69122C1031.34 1.91954 1031.61 1.28291 1032.15 0.781319C1032.71 0.260439 1033.42 0 1034.29 0C1035.14 0 1035.83 0.260439 1036.37 0.781319C1036.93 1.28291 1037.21 1.91954 1037.21 2.69122C1037.21 3.44359 1036.93 4.08023 1036.37 4.60112C1035.83 5.1027 1035.14 5.35348 1034.29 5.35348ZM1036.75 7.03188V23.1791H1031.8V7.03188H1036.75Z" fill="white"/>
<path d="M1022.14 6.87305C1024.03 6.87305 1025.53 7.49039 1026.65 8.72507C1027.79 9.94045 1028.36 11.6188 1028.36 13.7602V23.194H1023.44V14.4258C1023.44 13.3455 1023.16 12.5063 1022.6 11.9082C1022.04 11.3102 1021.29 11.0112 1020.34 11.0112C1019.4 11.0112 1018.65 11.3102 1018.09 11.9082C1017.53 12.5063 1017.25 13.3455 1017.25 14.4258V23.194H1012.3V7.04668H1017.25V9.18808C1017.75 8.47429 1018.42 7.91482 1019.27 7.50969C1020.12 7.08525 1021.08 6.87305 1022.14 6.87305Z" fill="white"/>
<path d="M991.668 15.08C991.668 13.4209 991.977 11.9644 992.594 10.7104C993.231 9.45645 994.09 8.49185 995.17 7.81663C996.25 7.14142 997.456 6.80383 998.787 6.80383C999.925 6.80383 1000.92 7.03531 1001.77 7.49832C1002.64 7.96134 1003.3 8.56903 1003.76 9.3214V7.03531H1008.71V23.1826H1003.76V20.8965C1003.28 21.6489 1002.61 22.2566 1001.74 22.7196C1000.89 23.1826 999.896 23.4141 998.758 23.4141C997.446 23.4141 996.25 23.0765 995.17 22.4013C994.09 21.7068 993.231 20.7325 992.594 19.4785C991.977 18.2053 991.668 16.7391 991.668 15.08ZM1003.76 15.109C1003.76 13.8743 1003.42 12.9 1002.72 12.1862C1002.05 11.4724 1001.22 11.1155 1000.23 11.1155C999.25 11.1155 998.411 11.4724 997.716 12.1862C997.041 12.8808 996.704 13.8453 996.704 15.08C996.704 16.3147 997.041 17.2986 997.716 18.0317C998.411 18.7455 999.25 19.1024 1000.23 19.1024C1001.22 19.1024 1002.05 18.7455 1002.72 18.0317C1003.42 17.3179 1003.76 16.3436 1003.76 15.109Z" fill="white"/>
<path d="M989.088 2.86487V23.1792H984.139V10.9964L979.596 23.1792H975.603L971.031 10.9674V23.1792H966.082V2.86487H971.928L977.628 16.9286L983.271 2.86487H989.088Z" fill="white"/>
</g>
</g>
<defs>
<clipPath id="clip0_1_15241">
<rect width="136.042" height="23.4107" fill="white" transform="translate(390.698 0.000732422)"/>
</clipPath>
<clipPath id="clip1_1_15241">
<rect width="103.267" height="23.4107" fill="white" transform="translate(596.972 0.000732422)"/>
</clipPath>
<clipPath id="clip2_1_15241">
<rect width="125.377" height="23.4107" fill="white" transform="translate(770.472 0.000732422)"/>
</clipPath>
<clipPath id="clip3_1_15241">
<rect width="107.689" height="23.4107" fill="white" transform="translate(966.081 0.000732422)"/>
</clipPath>
</defs>
</svg>
